<svg width="26" height="25" viewBox="0 0 26 25" fill="none" xmlns="http://www.w3.org/2000/svg">
<path d="M13.0944 0.449219C11.4518 0.449219 9.82524 0.768041 8.30764 1.38748C6.79004 2.00692 5.41112 2.91485 4.24959 4.05942C1.90379 6.371 0.585938 9.50617 0.585938 12.7752C0.585938 18.2233 4.17588 22.8456 9.14175 24.4849C9.76718 24.5835 9.96732 24.2014 9.96732 23.8686V21.7855C6.50246 22.5251 5.76446 20.1339 5.76446 20.1339C5.18907 18.704 4.37601 18.3219 4.37601 18.3219C3.23774 17.5577 4.46357 17.5824 4.46357 17.5824C5.71442 17.6687 6.37738 18.852 6.37738 18.852C7.46562 20.7255 9.30436 20.1708 10.0173 19.875C10.1299 19.0738 10.4551 18.5315 10.8054 18.2233C8.0285 17.9152 5.11402 16.8551 5.11402 12.1589C5.11402 10.7907 5.58934 9.69373 6.40239 8.81858C6.27731 8.51043 5.83951 7.22852 6.52748 5.56451C6.52748 5.56451 7.57819 5.23171 9.96732 6.82177C10.9555 6.55059 12.0312 6.41501 13.0944 6.41501C14.1577 6.41501 15.2334 6.55059 16.2216 6.82177C18.6107 5.23171 19.6614 5.56451 19.6614 5.56451C20.3494 7.22852 19.9116 8.51043 19.7865 8.81858C20.5995 9.69373 21.0749 10.7907 21.0749 12.1589C21.0749 16.8675 18.1479 17.9028 15.3585 18.211C15.8088 18.5931 16.2216 19.345 16.2216 20.4913V23.8686C16.2216 24.2014 16.4217 24.5959 17.0596 24.4849C22.0255 22.8333 25.6029 18.2233 25.6029 12.7752C25.6029 11.1566 25.2794 9.55373 24.6508 8.05827C24.0222 6.56281 23.1008 5.204 21.9393 4.05942C20.7778 2.91485 19.3988 2.00692 17.8812 1.38748C16.3636 0.768041 14.7371 0.449219 13.0944 0.449219Z" fill="white"/>
</svg>
